<?xml version="1.0" encoding="utf-8"?>
<svg width="1788" height="1107" viewBox="0 0 1788 1107" fill="none" xmlns="http://www.w3.org/2000/svg">
<path opacity="0.8" d="M931.827 5.51568C766.467 28.8273 622.927 142.202 529.015 271.806C291.507 576.582 541.633 1097.86 944.668 1105.47C1354.97 1132.89 1650.52 667.947 1497.26 310.209C1418.04 89.5257 1158.78 -25.8818 931.827 5.51568Z" fill="#FF9C8B"/>
<path fill-rule="evenodd" clip-rule="evenodd" d="M1434.8 879H1258.4C1251.4 879 1245.6 873.3 1245.6 866.2V750.2C1245.6 743.2 1251.3 737.4 1258.4 737.4H1434.8C1441.8 737.4 1447.6 743.1 1447.6 750.2V866.2C1447.5 873.3 1441.8 879 1434.8 879Z" fill="#FDCA9C"/>
<path fill-rule="evenodd" clip-rule="evenodd" d="M1447.5 806.2C1449.16 806.2 1450.5 807.543 1450.5 809.2C1450.5 810.798 1449.25 812.104 1447.68 812.195L1447.5 812.2H1243.7C1242.04 812.2 1240.7 810.857 1240.7 809.2C1240.7 807.603 1241.95 806.297 1243.52 806.205L1243.7 806.2H1447.5Z" fill="#FFF0E0"/>
<path fill-rule="evenodd" clip-rule="evenodd" d="M1406.4 735.5C1408 735.5 1409.3 736.749 1409.39 738.324L1409.4 738.5V884.5C1409.4 886.157 1408.06 887.5 1406.4 887.5C1404.8 887.5 1403.5 886.251 1403.4 884.676L1403.4 884.5V738.5C1403.4 736.843 1404.74 735.5 1406.4 735.5Z" fill="#FFF0E0"/>
<path fill-rule="evenodd" clip-rule="evenodd" d="M1231.2 1093H894.9C867.6 1093 845.5 1070.9 845.5 1043.6V260.9C845.5 233.6 867.6 211.5 894.9 211.5H1231.3C1258.6 211.5 1280.7 233.6 1280.7 260.9V1043.6C1280.7 1070.9 1258.5 1093 1231.2 1093Z" fill="#241C54"/>
<path fill-rule="evenodd" clip-rule="evenodd" d="M973 239.8H905C883.661 239.8 866.3 256.624 866.3 277.4V1028.5C866.3 1049.28 883.661 1066.1 905 1066.1H1184.3C1205.64 1066.1 1223 1049.28 1223 1028.5V277.4C1223.11 256.697 1205.71 239.8 1184.3 239.8H1116.3C1114.64 239.8 1113.3 241.143 1113.3 242.8V257.3C1113.3 260.333 1110.75 262.8 1107.5 262.8H981.8C978.548 262.8 976 260.333 976 257.3V242.8C976 241.143 974.657 239.8 973 239.8ZM1119.3 257.3L1119.3 245.799L1184.3 245.8C1202.43 245.8 1217.09 260.039 1217 277.384L1217 1028.5C1217 1045.92 1202.37 1060.1 1184.3 1060.1H905C886.934 1060.1 872.3 1045.92 872.3 1028.5V277.4L872.304 276.878C872.593 259.698 887.114 245.8 905 245.8L970 245.799V257.3C970 263.69 975.276 268.8 981.8 268.8H1107.5C1114.02 268.8 1119.3 263.69 1119.3 257.3Z" fill="#FFF0E0"/>
<path fill-rule="evenodd" clip-rule="evenodd" d="M1191.2 201.8C1223.69 201.8 1250.07 227.089 1250.59 258.545L1250.6 259.5V881.4C1250.6 883.057 1249.26 884.4 1247.6 884.4C1246 884.4 1244.7 883.151 1244.61 881.576L1244.6 881.4V259.5C1244.6 230.956 1220.74 207.8 1191.2 207.8C1189.54 207.8 1188.2 206.457 1188.2 204.8C1188.2 203.143 1189.54 201.8 1191.2 201.8Z" fill="#FFF0E0"/>
<path fill-rule="evenodd" clip-rule="evenodd" d="M872.5 411.8C899.1 408.8 975.9 387.3 1037.7 447.6C1099.5 507.9 1122.8 569.9 1221.7 571.2V1038.9C1122.8 1037.6 1099.6 1024.9 1037.7 964.5C975.9 904.2 899.1 907.7 872.5 910.7V411.8Z" fill="#FFF0E0"/>
<path fill-rule="evenodd" clip-rule="evenodd" d="M1024.8 841.3L1064.8 852.3C1076.2 855.4 1086.4 861.9 1093.7 870.9C1102.7 887 1101.9 897.7 1103.8 906C1105.5 913.6 1112.9 918.7 1120.8 917.8V848.5C1120.8 843.2 1117.3 838.4 1112.1 836.7C1099.9 832.7 1079.1 824.7 1079.6 817.5C1080.4 807.3 1120.1 816.8 1120.1 816.8L1120.8 786.2C1120.8 786.2 1039.6 786 1021.8 801.3C1004 816.6 1024.8 841.3 1024.8 841.3Z" fill="#241C54"/>
<path fill-rule="evenodd" clip-rule="evenodd" d="M708.3 1010.3L704.8 1045.8C703.8 1055.9 699.5 1065 692.4 1071.5C679 1079.5 669.1 1078.7 661.8 1080.4C655.1 1081.9 651.6 1088.5 653.7 1095.5H725.7C725.7 1095.5 729.5 1058.2 739.1 1058.9C748.7 1059.6 754.9 1097.2 754.9 1097.2H783.1C783.1 1097.2 761.4 1023.3 744.5 1007.5C727.6 991.801 708.3 1010.3 708.3 1010.3Z" fill="#241C54"/>
<path fill-rule="evenodd" clip-rule="evenodd" d="M715.7 635.1L793.9 832.6C799.7 844.9 811.8 852.6 825 852.4L1039.5 895.5L1042.2 783.4L879.7 777.4L866.8 635.1H715.7V635.1Z" fill="#FFF0E0"/>
<path fill-rule="evenodd" clip-rule="evenodd" d="M866.8 632.1H715.7C713.582 632.1 712.131 634.235 712.911 636.204L791.111 833.704L791.186 833.879L791.394 834.313C797.63 847.126 810.241 855.252 824.109 855.401L824.712 855.402L1038.91 898.441C1040.74 898.808 1042.45 897.436 1042.5 895.572L1045.2 783.472L1045.2 783.297C1045.15 781.734 1043.89 780.46 1042.31 780.402L882.449 774.499L869.788 634.829C869.648 633.283 868.352 632.1 866.8 632.1ZM864.059 638.1L876.712 777.67L876.734 777.849C876.947 779.266 878.141 780.344 879.589 780.398L1039.13 786.288L1036.59 891.854L825.591 849.458C825.381 849.416 825.168 849.397 824.954 849.4L824.521 849.403C812.821 849.412 802.115 842.597 796.807 831.725L796.652 831.401L720.114 638.1H864.059Z" fill="#241C54"/>
<path fill-rule="evenodd" clip-rule="evenodd" d="M770 644.8C770 644.8 677.8 754 668.8 779C659.8 804 672.8 1019.8 672.8 1019.8L771.7 1020.7L757.8 794.9L893.2 680.6L770 644.8Z" fill="#FFF0E0"/>
<path fill-rule="evenodd" clip-rule="evenodd" d="M767.708 642.865L763.32 648.094L758.523 653.849C756.853 655.857 755.115 657.953 753.318 660.127L751.764 662.009C739.809 676.494 727.854 691.239 716.693 705.37L713.266 709.723L711.027 712.58C685.728 744.945 669.629 767.839 665.977 777.984C662.046 788.904 661.764 831.934 664.049 898.327L664.227 903.422C664.686 916.23 665.229 929.554 665.841 943.22L666.216 951.459C666.889 965.982 667.603 980.163 668.323 993.59L668.847 1003.21L669.805 1019.98C669.9 1021.55 671.196 1022.79 672.773 1022.8L771.673 1023.7L771.851 1023.7C773.507 1023.61 774.798 1022.19 774.694 1020.52L760.887 796.22L895.135 682.892C896.965 681.348 896.337 678.387 894.037 677.719L770.837 641.919C769.699 641.588 768.472 641.959 767.708 642.865ZM771.038 648.225L886.986 681.918L755.865 792.608L755.715 792.743C755.086 793.351 754.752 794.205 754.806 795.084L768.507 1017.67L675.629 1016.83L675.048 1006.65L674.675 999.912C673.834 984.568 672.994 968.107 672.21 951.181L671.835 942.952C671.224 929.304 670.681 915.998 670.224 903.208L670.045 898.12C667.814 833.261 668.098 789.806 671.623 780.016C674.954 770.762 690.996 747.948 715.754 716.276L717.985 713.428C719.11 711.995 720.249 710.549 721.402 709.089C731.837 695.877 742.974 682.119 754.155 668.541L758.708 663.025C761.499 659.651 764.14 656.473 766.6 653.527L771.038 648.225Z" fill="#241C54"/>
<path fill-rule="evenodd" clip-rule="evenodd" d="M719.6 697.3L778.9 490.6L919.7 501.8C907 582.9 881.3 638.1 921.7 699.8L719.6 697.3Z" fill="#FC2369"/>
<path fill-rule="evenodd" clip-rule="evenodd" d="M893.069 445.89C893.959 444.492 895.813 444.08 897.211 444.969C901.134 447.466 904.579 451.802 906.864 457.133C911.191 467.383 909.692 478.425 902.621 481.894C901.134 482.623 899.336 482.009 898.607 480.522C897.904 479.089 898.448 477.369 899.817 476.592L899.979 476.507C903.548 474.756 904.58 467.151 901.343 459.482C899.579 455.366 897.014 452.073 894.283 450.224L893.989 450.031C892.592 449.142 892.179 447.288 893.069 445.89Z" fill="#FC2369"/>
<path fill-rule="evenodd" clip-rule="evenodd" d="M886 380.4C875.6 371.2 871.6 326.3 903.9 298.6C936.6 270.6 959.6 303.1 964.7 311.6C969.8 320.1 972.3 342.7 944.3 361.9C916.4 381.2 897.9 390.9 886 380.4Z" fill="#241C54"/>
<path fill-rule="evenodd" clip-rule="evenodd" d="M867.4 397.9L868 398.5C871.7 401.8 877.5 401.4 881 397.6L890.7 387.1C894.2 383.3 894 377.6 890.3 374.3L889.7 373.7C886 370.4 880.2 370.8 876.7 374.6L867 385.1C863.5 388.9 863.7 394.6 867.4 397.9Z" fill="#FC2369"/>
<path fill-rule="evenodd" clip-rule="evenodd" d="M852.597 419.38C864.911 403.911 867.327 385.348 857.993 377.918C848.66 370.488 831.111 377.006 818.797 392.475C806.483 407.945 804.067 426.508 813.401 433.938C822.734 441.367 840.283 434.85 852.597 419.38Z" fill="#241C54"/>
<path fill-rule="evenodd" clip-rule="evenodd" d="M845.3 420.5C857.9 435.5 873.5 441.7 886.1 440.1C899.5 438.4 899.9 407.1 887.3 392.2C874.7 377.2 850 370 840.2 378.4C830.4 386.8 832.7 405.6 845.3 420.5Z" fill="#241C54"/>
<path fill-rule="evenodd" clip-rule="evenodd" d="M894.596 447.644C899.134 443.043 899.243 435.793 894.839 431.449C890.436 427.104 883.187 427.312 878.649 431.912C874.111 436.512 874.002 443.763 878.406 448.107C882.809 452.451 890.058 452.244 894.596 447.644Z" fill="#FFF0E0"/>
<path fill-rule="evenodd" clip-rule="evenodd" d="M876.513 429.805C870.832 435.564 870.694 444.713 876.299 450.242C881.903 455.771 891.05 455.509 896.731 449.75C902.413 443.991 902.551 434.841 896.946 429.312C891.342 423.784 882.195 424.045 876.513 429.805ZM880.785 434.018C884.179 430.577 889.53 430.424 892.732 433.584C895.935 436.743 895.854 442.095 892.46 445.536C889.065 448.977 883.715 449.13 880.512 445.971C877.31 442.811 877.39 437.459 880.785 434.018Z" fill="#241C54"/>
<path fill-rule="evenodd" clip-rule="evenodd" d="M815.617 441.109C820.156 436.509 820.265 429.258 815.861 424.914C811.458 420.57 804.209 420.778 799.671 425.378C795.133 429.978 795.024 437.229 799.427 441.573C803.831 445.917 811.079 445.709 815.617 441.109Z" fill="#FFF0E0"/>
<path fill-rule="evenodd" clip-rule="evenodd" d="M797.535 423.27C791.854 429.03 791.716 438.179 797.32 443.708C802.925 449.237 812.072 448.975 817.753 443.216C823.435 437.456 823.572 428.307 817.968 422.778C812.364 417.249 803.217 417.511 797.535 423.27ZM801.807 427.484C805.201 424.043 810.552 423.89 813.754 427.05C816.957 430.209 816.876 435.561 813.482 439.002C810.087 442.443 804.737 442.596 801.534 439.437C798.332 436.277 798.412 430.925 801.807 427.484Z" fill="#241C54"/>
<path fill-rule="evenodd" clip-rule="evenodd" d="M831.1 476.6L831.9 497.1L814.7 495.7C814 498 804 538.3 839.6 536.3C863 535 880.2 520.4 888 501.4L874.2 499.8L873.7 458.2L831.1 476.6Z" fill="#FFF0E0"/>
<path fill-rule="evenodd" clip-rule="evenodd" d="M829.91 473.846L829.734 473.929C828.699 474.458 828.056 475.544 828.102 476.717L828.77 493.834L814.943 492.71C813.537 492.596 812.241 493.477 811.83 494.827C811.371 496.335 810.709 499.556 810.31 502.945C809.692 508.185 809.704 513.362 810.587 518.156C813.151 532.079 822.551 540.263 839.768 539.296C863.195 537.994 882.066 523.755 890.775 502.54L890.838 502.372C891.456 500.578 890.26 498.642 888.346 498.42L877.167 497.123L876.7 458.164C876.674 456.023 874.477 454.597 872.51 455.446L829.91 473.846ZM870.754 462.74L871.2 499.836L871.208 500.016C871.31 501.445 872.415 502.614 873.854 502.78L883.579 503.908L883.444 504.183C874.986 521.122 859.011 532.217 839.434 533.305C825.368 534.095 818.527 528.139 816.488 517.07C815.726 512.935 815.716 508.337 816.268 503.647L816.36 502.911C816.518 501.695 816.708 500.529 816.919 499.437L817.025 498.899L831.657 500.091L831.835 500.1C833.55 500.139 834.966 498.722 834.898 496.983L834.177 478.538L870.754 462.74Z" fill="#241C54"/>
<path fill-rule="evenodd" clip-rule="evenodd" d="M882.587 440.906C887.599 414.648 875.609 390.299 855.808 386.519C836.006 382.739 815.891 400.961 810.879 427.218C805.867 453.476 817.856 477.826 837.658 481.605C857.459 485.385 877.575 467.163 882.587 440.906Z" fill="#FFF0E0"/>
<path fill-rule="evenodd" clip-rule="evenodd" d="M807.932 426.655C802.638 454.388 815.456 480.421 837.095 484.552C858.734 488.682 880.24 469.201 885.534 441.468C890.827 413.735 878.009 387.702 856.37 383.571C834.731 379.441 813.226 398.922 807.932 426.655ZM813.826 427.78C818.556 402.998 837.281 386.036 855.245 389.465C873.209 392.894 884.37 415.561 879.64 440.343C874.909 465.125 856.184 482.087 838.22 478.658C820.256 475.229 809.095 452.562 813.826 427.78Z" fill="#241C54"/>
<path fill-rule="evenodd" clip-rule="evenodd" d="M885.859 443.469C887.367 442.783 889.145 443.45 889.831 444.959C890.492 446.413 889.896 448.119 888.5 448.853L888.341 448.931C884.681 450.595 883.602 458.223 886.857 466.018C890.145 473.689 896.005 477.952 899.587 476.542L899.645 476.516L899.781 476.441C900.154 476.25 900.564 476.136 900.987 476.107L901.2 476.1C902.857 476.1 904.2 477.443 904.2 479.1C904.2 480.154 903.656 481.081 902.834 481.616L902.603 481.757C902.483 481.829 902.358 481.893 902.23 481.948L902.017 482.028L901.989 482.042C894.73 485.109 885.986 478.888 881.487 468.713L881.332 468.356C876.976 457.924 878.55 446.791 885.859 443.469Z" fill="#FC2369"/>
<path fill-rule="evenodd" clip-rule="evenodd" d="M801.959 435.469C803.467 434.783 805.245 435.45 805.931 436.959C806.592 438.413 805.996 440.119 804.6 440.853L804.441 440.931C800.781 442.595 799.702 450.223 802.964 458.034C805.89 464.973 811.162 469.295 814.848 468.784L815.044 468.752C816.672 468.445 818.241 469.516 818.548 471.144C818.855 472.772 817.784 474.341 816.156 474.648C809.138 475.972 801.387 469.736 797.432 460.356C793.076 449.924 794.65 438.791 801.959 435.469Z" fill="#FC2369"/>
<path fill-rule="evenodd" clip-rule="evenodd" d="M837.918 423.269C838.377 421.677 840.04 420.759 841.631 421.218C843.167 421.661 844.075 423.223 843.726 424.761L843.682 424.932L838.708 442.174L843.316 442.508C844.91 442.623 846.122 443.963 846.1 445.541L846.092 445.717C845.977 447.31 844.637 448.523 843.06 448.5L842.884 448.493L834.584 447.893C832.741 447.759 831.47 446.015 831.873 444.241L831.918 444.069L837.918 423.269Z" fill="#241C54"/>
<path fill-rule="evenodd" clip-rule="evenodd" d="M852.837 410.046C856.272 408.517 859.756 409.241 862.963 411.221C864.104 411.925 864.967 412.635 865.503 413.162C866.685 414.324 866.701 416.223 865.539 417.404C864.424 418.538 862.629 418.599 861.442 417.574L861.182 417.336C861.124 417.285 861.048 417.22 860.953 417.142C860.616 416.865 860.23 416.586 859.811 416.326C858.121 415.283 856.557 414.958 855.277 415.527C854.989 415.656 854.7 415.832 854.408 416.063L854.188 416.248C852.947 417.346 851.051 417.23 849.953 415.989C848.855 414.748 848.971 412.852 850.212 411.754C851.032 411.029 851.91 410.459 852.837 410.046Z" fill="#241C54"/>
<path fill-rule="evenodd" clip-rule="evenodd" d="M828.577 408.909C830.658 408.521 832.772 408.714 834.807 409.256L835.297 409.394C835.838 409.554 836.269 409.711 836.569 409.838C838.095 410.483 838.808 412.244 838.163 413.769C837.54 415.241 835.881 415.957 834.395 415.427L834.088 415.308C833.909 415.243 833.626 415.15 833.265 415.054C832.018 414.723 830.752 414.607 829.676 414.807C828.539 415.019 827.698 415.557 827.063 416.61L826.939 416.828C826.15 418.285 824.33 418.828 822.872 418.039C821.415 417.251 820.873 415.43 821.661 413.973C823.207 411.116 825.648 409.455 828.577 408.909Z" fill="#241C54"/>
<path fill-rule="evenodd" clip-rule="evenodd" d="M856.4 433.201C857.946 433.201 859.2 431.275 859.2 428.901C859.2 426.526 857.946 424.601 856.4 424.601C854.854 424.601 853.6 426.526 853.6 428.901C853.6 431.275 854.854 433.201 856.4 433.201Z" fill="#241C54"/>
<path fill-rule="evenodd" clip-rule="evenodd" d="M831.213 429.813C831.442 427.45 830.38 425.413 828.841 425.263C827.302 425.114 825.869 426.909 825.639 429.273C825.41 431.637 826.472 433.674 828.011 433.823C829.55 433.972 830.984 432.177 831.213 429.813Z" fill="#241C54"/>
<path fill-rule="evenodd" clip-rule="evenodd" d="M871 388.601C871 388.601 857.1 396.201 858.9 405.601L796.9 407.501C796.9 407.501 786 360.301 861.9 376.201L871 388.601Z" fill="#241C54"/>
<path fill-rule="evenodd" clip-rule="evenodd" d="M866.9 391.2C866.9 391.2 864.9 423.4 885.6 430.2L883.4 402.1L866.9 391.2Z" fill="#241C54"/>
<path fill-rule="evenodd" clip-rule="evenodd" d="M849.975 455.345C850.669 453.84 852.451 453.182 853.955 453.876C855.46 454.569 856.118 456.351 855.425 457.856C853.556 461.911 850.701 464.326 847.197 465.108C844.406 465.732 841.577 465.274 838.863 464.171C837.763 463.723 836.914 463.267 836.383 462.927C834.987 462.034 834.58 460.179 835.473 458.783C836.333 457.439 838.086 457.012 839.46 457.78L839.73 457.941C839.788 457.974 839.865 458.016 839.959 458.067C840.301 458.251 840.693 458.438 841.123 458.612C842.806 459.297 844.48 459.568 845.89 459.253C847.515 458.89 848.87 457.744 849.975 455.345Z" fill="#241C54"/>
<path fill-rule="evenodd" clip-rule="evenodd" d="M801.3 707.4H579.6C567.1 707.4 557 697.3 557 684.8V496.4C557 483.9 567.1 473.8 579.6 473.8H801.3C813.8 473.8 823.9 483.9 823.9 496.4V684.8C823.9 697.3 813.8 707.4 801.3 707.4Z" fill="#241C54"/>
<rect x="606.6" y="406.1" width="135.9" height="65.7" fill="#FFF0E0"/>
<path fill-rule="evenodd" clip-rule="evenodd" d="M742.5 403.1H606.6C604.943 403.1 603.6 404.443 603.6 406.1V471.8C603.6 473.456 604.943 474.8 606.6 474.8H742.5C744.157 474.8 745.5 473.456 745.5 471.8V406.1C745.5 404.443 744.157 403.1 742.5 403.1ZM739.499 409.1V468.8H609.599V409.1H739.499Z" fill="#241C54"/>
<path fill-rule="evenodd" clip-rule="evenodd" d="M659.4 403.199C660.998 403.199 662.304 404.448 662.395 406.023L662.4 406.199V471.099C662.4 472.756 661.057 474.099 659.4 474.099C657.802 474.099 656.496 472.85 656.405 471.275L656.4 471.099V406.199C656.4 404.542 657.743 403.199 659.4 403.199Z" fill="#241C54"/>
<path fill-rule="evenodd" clip-rule="evenodd" d="M621 405C622.598 405 623.904 406.249 623.995 407.824L624 408V424H640.6V408.9C640.6 407.302 641.849 405.996 643.424 405.905L643.6 405.9C645.198 405.9 646.504 407.149 646.595 408.724L646.6 408.9V427C646.6 428.598 645.351 429.904 643.776 429.995L643.6 430H621C619.402 430 618.096 428.751 618.005 427.176L618 427V408C618 406.343 619.343 405 621 405Z" fill="#241C54"/>
<path fill-rule="evenodd" clip-rule="evenodd" d="M725.4 457.9H700C696.3 457.9 693.4 454.9 693.4 451.3V446.2C693.4 442.5 696.4 439.6 700 439.6H725.4C729.1 439.6 732 442.6 732 446.2V451.3C732 454.9 729.1 457.9 725.4 457.9Z" fill="#FC2369"/>
<path fill-rule="evenodd" clip-rule="evenodd" d="M567.4 551.001C581.7 556.101 592.9 551.901 590.6 549.701C588.3 547.501 569.9 539.201 569.9 539.201C569.9 539.201 570.9 538.601 582.2 544.501C593.5 550.401 603.3 545.901 601.3 544.101C599.3 542.301 575.2 529.501 575.2 529.501L600.6 537.701C606.7 539.701 610.3 535.201 608.2 532.601C606.8 530.901 586.9 524.001 578 520.901C578 520.901 598.5 525.301 604.6 525.301C610.6 525.301 610 519.901 607.4 518.501C604.8 517.101 576.1 497.001 548.2 504.501C535 510.601 520.9 534.501 567.4 551.001Z" fill="#FFF0E0"/>
<path fill-rule="evenodd" clip-rule="evenodd" d="M550.071 500.968C549.181 501.156 548.298 501.368 547.421 501.603C547.257 501.648 547.096 501.706 546.941 501.777C538.28 505.78 531.744 514.728 532.42 524.067C533.262 535.68 544.386 546.018 566.397 553.828C573.278 556.282 580.146 556.938 585.699 556.05C588.143 555.659 590.201 554.977 591.602 554.057L591.764 553.947C592.973 553.102 593.794 551.925 593.942 550.683L593.961 550.443L593.971 550.444C595.093 550.425 596.186 550.324 597.239 550.146C599.369 549.785 601.217 549.106 602.495 548.191C604.659 546.642 605.6 543.934 603.307 541.871L603.239 541.811C603.048 541.648 602.778 541.447 602.428 541.209L602.31 541.129L602.357 541.135C605.092 541.42 607.601 540.718 609.427 539.153C612.011 536.939 612.663 533.352 610.534 530.715L610.47 530.64C609.9 529.998 608.751 529.287 606.872 528.41L606.34 528.165L606.537 528.133C609.585 527.582 611.683 525.699 612.177 522.958C612.664 520.259 611.366 517.365 609.043 515.984L608.733 515.805C608.234 515.5 605.788 513.989 604.371 513.158C601.258 511.332 598.017 509.608 594.512 507.982C579.492 501.013 564.393 497.942 550.071 500.968ZM591.987 513.425C594.936 514.793 597.692 516.237 600.345 517.759L601.824 518.623C603.351 519.535 605.76 521.025 605.978 521.142C606.125 521.221 606.319 521.636 606.273 521.893C606.264 521.938 606.261 521.944 606.202 521.985C605.954 522.161 605.441 522.3 604.6 522.3C602.583 522.3 598.328 521.72 592.669 520.717L591.139 520.442C590.622 520.348 590.096 520.251 589.563 520.151C587.517 519.769 585.444 519.365 583.413 518.956L580.405 518.341L578.63 517.967C574.953 517.178 573.463 522.497 577.013 523.733L584.505 526.352C586.451 527.037 588.063 527.612 589.998 528.309L591.91 529.001C595.616 530.35 598.722 531.523 601.144 532.499L601.926 532.817C603.312 533.386 604.414 533.871 605.2 534.257L605.544 534.431L605.642 534.482L605.608 534.52C605.582 534.545 605.554 534.571 605.523 534.598C604.781 535.234 603.374 535.453 601.535 534.85L576.122 526.646C572.693 525.539 570.627 530.272 573.638 532.063L577.881 534.334L581.808 536.448C582.673 536.916 583.532 537.381 584.378 537.841L588.591 540.144C591.127 541.539 593.316 542.762 595.075 543.771L595.949 544.274L596.236 544.23C592.554 544.854 588.032 544.161 583.588 541.841L581.905 540.969C574.351 537.094 570.987 535.895 569.295 536.259L569.058 536.322C568.833 536.385 568.747 536.429 568.356 536.628C566.28 537.874 566.459 540.939 568.666 541.935L571.407 543.188L571.912 543.421C573.944 544.36 575.975 545.315 577.91 546.244L579.692 547.106L580.781 547.64C582.315 548.397 583.677 549.088 584.835 549.7L585.411 550.007L585.362 550.018C585.165 550.056 584.961 550.092 584.751 550.126C580.2 550.853 574.351 550.294 568.408 548.175L567.22 547.747C548.023 540.725 539.026 532.205 538.405 523.634L538.385 523.304C538.098 516.934 542.832 510.434 549.131 507.379L549.228 507.332L548.979 507.398C549.75 507.19 550.527 507.004 551.311 506.839C564.146 504.127 578.035 506.951 591.987 513.425Z" fill="#241C54"/>
<path fill-rule="evenodd" clip-rule="evenodd" d="M635.4 471.9C648.419 471.9 659.085 482.227 659.297 495.012L659.3 495.4V683.7C659.3 696.664 648.551 707.2 635.4 707.2C633.743 707.2 632.4 705.857 632.4 704.2C632.4 702.544 633.743 701.2 635.4 701.2C645.153 701.2 653.119 693.499 653.297 684.024L653.3 683.7V495.4C653.3 485.778 645.263 477.9 635.4 477.9C633.743 477.9 632.4 476.557 632.4 474.9C632.4 473.244 633.743 471.9 635.4 471.9Z" fill="#FFF0E0"/>
<path fill-rule="evenodd" clip-rule="evenodd" d="M685.3 616.1C680.2 616.4 678.4 620.5 682.8 623C687.2 625.5 693.1 627.4 693.1 627.4L715.8 621.2C711.6 619.4 690.4 615.9 685.3 616.1Z" fill="#FFF0E0"/>
<path fill-rule="evenodd" clip-rule="evenodd" d="M685.182 613.102L685.124 613.105C677.214 613.571 674.11 621.513 681.318 625.608C682.238 626.131 683.245 626.646 684.326 627.152C686.05 627.96 687.883 628.711 689.713 629.389L690.458 629.662C690.698 629.748 690.931 629.83 691.154 629.908L692.18 630.256C692.735 630.434 693.329 630.447 693.89 630.294L716.59 624.094C719.331 623.346 719.593 619.562 716.982 618.443C712.404 616.481 690.776 612.883 685.182 613.102ZM703.618 621.417L693.194 624.264L692.813 624.132C692.493 624.018 692.154 623.895 691.799 623.764C690.113 623.139 688.429 622.448 686.871 621.719C685.925 621.275 685.056 620.831 684.282 620.392L684.118 620.295C683.752 620.07 683.515 619.863 683.381 619.691C683.63 619.475 684.252 619.203 685.241 619.113L685.449 619.096L685.779 619.091C688.681 619.081 695.866 620.058 702.407 621.203L703.618 621.417Z" fill="#241C54"/>
<path fill-rule="evenodd" clip-rule="evenodd" d="M759.4 616.8L731.8 621.7C702.8 619.5 675 634.8 672.5 636.5C670 638.2 670 643.7 676.1 643C682.2 642.3 702.2 635.6 702.2 635.6C693.6 639.6 674.5 648.8 673.4 650.6C671.6 653.4 675.8 657.5 681.6 654.8L706.1 643.7C706.1 643.7 683.4 659.2 681.6 661.2C679.8 663.2 690.1 666.6 700.7 659.5C711.3 652.4 712.4 652.8 712.4 652.8C712.4 652.8 695 663.2 692.9 665.7C690.8 668.2 704.7 673 715.6 662.2C715.6 662.2 730.8 665.6 741.7 659.6L771.6 656.2L759.4 616.8Z" fill="#FFF0E0"/>
<path fill-rule="evenodd" clip-rule="evenodd" d="M758.876 613.846L731.642 618.681L732.027 618.709C718.775 617.703 704.896 620.081 691.233 624.802L690.249 625.147C681.743 628.167 673.715 632.046 670.813 634.019C668.468 635.614 667.38 638.773 668.202 641.512L668.274 641.74C669.142 644.295 671.426 645.846 674.47 646.038L674.724 646.05L674.6 646.127C672.556 647.378 671.248 648.368 670.84 649.036C669.032 651.847 670.133 655.349 672.981 657.256L673.233 657.418C675.185 658.621 677.639 658.982 680.189 658.429L680.158 658.455C679.803 658.759 679.54 659.004 679.37 659.193C677.292 661.502 678.54 664.098 680.875 665.398C682.249 666.163 684.165 666.633 686.327 666.758L686.787 666.779C687.712 666.812 688.659 666.785 689.62 666.696L689.715 666.685L689.736 666.842C689.812 667.309 689.974 667.77 690.223 668.203C690.746 669.115 691.57 669.812 692.609 670.37C694.311 671.284 696.68 671.844 699.269 671.936L699.692 671.947C705.345 672.041 711.223 670.019 716.235 665.697L716.541 665.428L717.123 665.52C717.316 665.55 717.518 665.579 717.729 665.609L718.051 665.653C723.468 666.383 729.217 666.415 734.685 665.272L735.297 665.139C737.731 664.586 740.012 663.804 742.112 662.768L742.609 662.515L771.939 659.181C773.807 658.968 775.022 657.109 774.466 655.313L762.266 615.913C761.818 614.468 760.365 613.582 758.876 613.846ZM757.317 620.216L767.663 653.628L741.361 656.619C740.972 656.664 740.596 656.783 740.253 656.972C738.259 658.07 735.978 658.872 733.457 659.399C728.755 660.382 723.651 660.354 718.853 659.707C718.122 659.608 717.468 659.503 716.9 659.399L716.255 659.272C715.257 659.049 714.215 659.35 713.488 660.069C709.267 664.252 704.215 666.108 699.481 665.94L699.161 665.925C698.764 665.902 698.382 665.864 698.02 665.814L697.607 665.748L697.797 665.614C699.099 664.697 700.76 663.59 702.708 662.335L704.156 661.409C705.582 660.502 707.077 659.568 708.595 658.63L711.359 656.935L713.939 655.375C716.109 654.079 715.801 650.845 713.425 649.981L713.223 649.917C713.095 649.878 713.039 649.868 712.842 649.832C711.01 649.553 707.521 651.32 699.03 657.008L698.613 657.281C694.707 659.788 690.594 660.9 687.051 660.785L686.953 660.78L687.476 660.396C688.74 659.47 690.259 658.379 691.996 657.148L695.515 654.669L697.859 653.032C699.05 652.202 700.267 651.358 701.493 650.51L707.792 646.178C710.82 644.11 708.202 639.454 704.862 640.968L680.362 652.068C678.594 652.89 677.158 652.831 676.319 652.27L676.231 652.207L676.174 652.16L676.27 652.095C676.77 651.76 677.466 651.337 678.337 650.839L679.297 650.298C681.02 649.341 683.223 648.184 685.816 646.868L686.34 646.603C691.551 643.97 698.126 640.804 703.465 638.32C706.84 636.751 704.897 631.717 701.417 632.703L697.724 633.911C695.039 634.78 692.282 635.649 689.609 636.458L687.428 637.111L685.542 637.661C680.975 638.973 677.531 639.816 675.758 640.02C674.885 640.12 674.328 640.036 674.042 639.881C673.969 639.842 673.962 639.833 673.948 639.788C673.873 639.535 674.026 639.091 674.187 638.981L674.492 638.785C675.456 638.191 677.594 637.041 680.042 635.865C683.991 633.967 688.445 632.114 693.192 630.473C706.14 625.999 719.236 623.756 731.573 624.692C731.824 624.711 732.077 624.698 732.324 624.654L757.317 620.216Z" fill="#241C54"/>
<path fill-rule="evenodd" clip-rule="evenodd" d="M748.4 615.9L755.7 662.9C756.2 666.3 759.3 668.6 762.6 668.1L880.7 648.4C885.6 647.6 889.9 644.8 892.5 640.7C905.5 620.7 944.1 560.1 948 538.9C952.8 513.3 912.8 481.8 890.4 517.2C857.1 569.7 851.5 590.7 851.5 590.7L753.8 608.6C750.3 609 747.8 612.3 748.4 615.9Z" fill="#FC2369"/>
<path fill-rule="evenodd" clip-rule="evenodd" d="M882.331 532.629C883.088 531.155 884.897 530.574 886.371 531.331C887.79 532.06 888.381 533.764 887.747 535.205L887.669 535.37L861.369 586.57C860.99 587.308 860.325 587.853 859.534 588.081L859.334 588.132L826.034 595.332C824.415 595.682 822.818 594.653 822.468 593.034C822.13 591.472 823.075 589.932 824.595 589.51L824.766 589.467L856.679 582.567L882.331 532.629Z" fill="#241C54"/>
<path fill-rule="evenodd" clip-rule="evenodd" d="M890.866 641.093C891.754 639.694 893.607 639.279 895.007 640.166C896.406 641.053 896.821 642.907 895.934 644.306C892.947 649.016 888.066 652.265 882.501 653.288L882.092 653.359L827.392 662.459C825.758 662.731 824.213 661.626 823.941 659.992C823.678 658.416 824.696 656.923 826.235 656.574L826.408 656.54L881.117 647.439C885.182 646.775 888.731 644.46 890.866 641.093Z" fill="#241C54"/>
<path fill-rule="evenodd" clip-rule="evenodd" d="M497.568 801.294C498.787 800.172 500.685 800.25 501.807 801.469L502.077 801.77C502.322 802.051 502.651 802.441 503.055 802.94C503.994 804.098 505.033 805.475 506.147 807.07C509.308 811.593 512.459 816.973 515.395 823.199C527.778 849.46 532.606 881.842 525.55 920.046C525.249 921.675 523.684 922.752 522.055 922.451C520.426 922.15 519.349 920.585 519.65 918.956C526.47 882.03 521.831 850.916 509.968 825.759C507.181 819.847 504.2 814.76 501.229 810.506C500.312 809.194 499.456 808.049 498.68 807.074L498.393 806.717C498.159 806.428 497.948 806.174 497.761 805.955L497.452 805.599C497.425 805.568 497.405 805.546 497.393 805.533C496.271 804.314 496.349 802.416 497.568 801.294Z" fill="#241C54"/>
<path fill-rule="evenodd" clip-rule="evenodd" d="M380.5 861.3L380.4 837.7C380.4 834.7 377.3 832.6 374.5 833.8L361.2 839.3C358.6 840.4 357.7 843.6 359.4 845.8L372.9 863.8C375.3 867.2 380.5 865.5 380.5 861.3Z" fill="#241C54"/>
<path fill-rule="evenodd" clip-rule="evenodd" d="M374.6 884.701L339.2 907.401C334.8 910.301 328.9 906.901 329.2 901.601L330.3 881.301C330.7 874.201 334.7 867.701 340.9 864.301L378 843.701C384 840.301 391.6 842.701 394.7 848.901L414.9 890.201L477.5 891.201C500 890.301 520.7 903.601 530.1 925.401L581.7 1059.4C587.2 1070.1 587.9 1085.1 577 1090.4L574.9 1091.4C565.2 1096.5 553.3 1092.3 548.8 1082.5C548.5 1081.8 548.2 1081 548 1080.2L518.7 970.301L505 974.201L533.2 1082C534.4 1086.9 531.3 1091.9 526.4 1093L511.2 1094.1C503.4 1094.7 496.4 1089.3 494.9 1081.6L475 980.601L442.3 980.401L440.6 1086.5C440.7 1092.1 436.3 1096.8 430.6 1096.9L412.7 1097.2C405.6 1097.3 400 1091.2 400.7 1084.1L410.1 978.401L396.5 973.401L337.1 1072.4C333.7 1078 326.2 1079.6 320.8 1075.9L307.8 1067C302.1 1063.1 301.1 1055.1 305.6 1049.9L373.3 949.001L374.6 884.701Z" fill="#FFF0E0"/>
<path fill-rule="evenodd" clip-rule="evenodd" d="M376.521 841.09L339.444 861.678C332.372 865.555 327.764 872.972 327.305 881.132L326.204 901.438L326.193 901.69C325.956 909.206 334.267 914.015 340.639 910.041L371.486 890.26L370.318 948.059L303.2 1048.09L303.331 1047.94C297.652 1054.5 298.936 1064.57 306.106 1069.48L319.105 1078.38L319.383 1078.56C326.182 1082.99 335.431 1080.93 339.664 1073.96L397.795 977.072L406.908 980.422L397.712 1083.83C396.839 1092.68 403.846 1100.33 412.742 1100.2L430.65 1099.9L430.963 1099.89C438.035 1099.6 443.566 1093.81 443.602 1086.76L443.599 1086.52L445.251 983.417L472.53 983.584L491.957 1082.18C493.748 1091.38 502.119 1097.81 511.43 1097.09L526.617 1095.99C526.765 1095.98 526.912 1095.96 527.057 1095.93L527.353 1095.86C533.724 1094.26 537.688 1087.71 536.114 1081.29L508.645 976.281L516.587 974.02L545.101 1080.97C545.314 1081.82 545.637 1082.74 546.043 1083.68L546.203 1084.02C551.537 1095.15 564.962 1099.78 575.96 1094.23L576.243 1094.08L578.29 1093.11L578.639 1092.93C589.941 1087.15 591.299 1071.88 584.576 1058.44L584.444 1058.18L532.9 924.322L532.855 924.213L532.556 923.53C522.669 901.312 501.416 887.539 478.095 888.179L477.474 888.199L416.786 887.229L397.383 847.559C393.513 839.817 384.011 836.846 376.521 841.09ZM392.017 850.242L412.205 891.518C412.701 892.532 413.724 893.182 414.852 893.2L477.452 894.2L477.62 894.198L478.259 894.176C499.123 893.604 518.165 905.946 527.076 925.973L527.32 926.531L578.9 1060.48C578.939 1060.58 578.983 1060.68 579.032 1060.77C584.719 1071.84 583.677 1083.82 575.688 1087.7L573.61 1088.69L573.504 1088.74C565.387 1093.01 555.337 1089.55 551.526 1081.25C551.269 1080.65 551.048 1080.02 550.91 1079.47L521.599 969.528C521.167 967.908 519.491 966.956 517.879 967.415L504.179 971.315C502.609 971.762 501.685 973.381 502.098 974.96L530.298 1082.76L530.347 1082.98C530.961 1085.98 529.12 1089.05 526.186 1089.96L525.934 1090.03L510.983 1091.11C504.707 1091.59 499.057 1087.25 497.845 1081.03L477.943 980.02C477.668 978.621 476.445 977.609 475.018 977.6L442.318 977.4C440.673 977.39 439.327 978.707 439.3 980.352L437.6 1086.45L437.6 1086.55C437.672 1090.55 434.541 1093.83 430.547 1093.9L412.65 1094.2C407.345 1094.28 403.161 1089.71 403.686 1084.39L413.088 978.666C413.208 977.316 412.408 976.052 411.135 975.585L397.535 970.585C396.183 970.088 394.669 970.622 393.928 971.857L334.528 1070.86C332.032 1074.97 326.481 1076.16 322.496 1073.43L309.495 1064.52C305.285 1061.64 304.53 1055.72 307.869 1051.86C307.949 1051.77 308.023 1051.67 308.091 1051.57L375.791 950.672C376.111 950.195 376.288 949.636 376.299 949.061L377.599 884.761C377.648 882.362 375 880.88 372.981 882.175L337.581 904.875C335.206 906.44 332.035 904.605 332.195 901.77L333.296 881.463C333.639 875.361 337.086 869.813 342.343 866.931L379.456 846.323C383.962 843.77 389.674 845.556 392.017 850.242Z" fill="#241C54"/>
<path fill-rule="evenodd" clip-rule="evenodd" d="M395.5 877.301L425.9 852.601C429.8 849.401 429.3 843.301 424.8 840.801L403.7 829.301C399.6 827.101 394.5 829.301 393.4 833.801L384 870.001C382.4 876.701 390.2 881.701 395.5 877.301Z" fill="#241C54"/>
<path fill-rule="evenodd" clip-rule="evenodd" d="M372.327 858.672C372.424 856.797 371.475 855.223 370.206 855.157C368.938 855.091 367.83 856.558 367.733 858.434C367.635 860.309 368.585 861.883 369.853 861.949C371.122 862.014 372.229 860.548 372.327 858.672Z" fill="#241C54"/>
<path fill-rule="evenodd" clip-rule="evenodd" d="M341.233 887.928C341.991 886.454 343.8 885.875 345.273 886.633C346.746 887.391 347.326 889.2 346.567 890.673C344.583 894.529 341.26 896.914 337.524 897.742C333.62 898.607 329.644 897.863 329.407 894.3C329.296 892.647 330.547 891.217 332.2 891.107C333.086 891.048 333.908 891.38 334.496 891.954L334.563 892.023L334.638 892.031C335.01 892.055 335.475 892.026 335.974 891.935L336.226 891.884C338.288 891.427 340.101 890.126 341.233 887.928Z" fill="#241C54"/>
<path fill-rule="evenodd" clip-rule="evenodd" d="M342.732 875.466C342.86 870.773 340.01 866.889 336.366 866.789C332.723 866.69 329.665 870.413 329.537 875.106C329.409 879.798 332.259 883.683 335.903 883.782C339.547 883.882 342.604 880.158 342.732 875.466Z" fill="#241C54"/>
<path fill-rule="evenodd" clip-rule="evenodd" d="M510.1 900.801C500.6 894.201 489.3 890.701 477.4 891.201L425.1 890.301C426 895.501 431.1 923.701 432.1 929.201C433.2 935.301 433.5 948.401 452.8 944.001C469.7 940.301 496.7 918.301 510.1 900.801Z" fill="#241C54"/>
<path fill-rule="evenodd" clip-rule="evenodd" d="M423.8 870.4L361.3 907.9C358.5 909.6 357.4 913.2 358.9 916.1L361.9 922.2C363.6 925.6 367.9 926.8 371 924.7L432.6 884.3C435.5 882.4 436.3 878.4 434.4 875.5L432.3 872.3C430.4 869.5 426.7 868.7 423.8 870.4Z" fill="#FC2369"/>
<path fill-rule="evenodd" clip-rule="evenodd" d="M740.862 652.456C742.212 651.496 744.085 651.812 745.045 653.162C745.968 654.461 745.711 656.242 744.49 657.231L744.338 657.346L421.838 886.646C420.488 887.606 418.615 887.289 417.655 885.939C416.732 884.641 416.989 882.859 418.21 881.87L418.362 881.756L740.862 652.456Z" fill="#FC2369"/>
<path fill-rule="evenodd" clip-rule="evenodd" d="M747.9 664.701L742.4 665.501C740.8 665.701 739.4 664.701 739.1 663.101L731.8 615.201C731.6 613.601 732.6 612.201 734.2 611.901L739.7 611.101C741.3 610.901 742.7 611.901 743 613.501L750.3 661.401C750.5 663.001 749.5 664.501 747.9 664.701Z" fill="#FC2369"/>
<path fill-rule="evenodd" clip-rule="evenodd" d="M1188 1093.3H1575.9C1584.2 1093.3 1590.9 1086.6 1590.9 1078.3V888.5C1590.9 880.2 1584.2 873.5 1575.9 873.5H1188C1179.7 873.5 1173 880.2 1173 888.5V1078.3C1173 1086.6 1179.7 1093.3 1188 1093.3Z" fill="#FF9C8B"/>
<path fill-rule="evenodd" clip-rule="evenodd" d="M1314.6 873.8C1316.26 873.8 1317.6 875.143 1317.6 876.8C1317.6 878.457 1316.26 879.8 1314.6 879.8C1305.07 879.8 1297.58 885.934 1297.4 893.325L1297.4 893.6V1076.5C1297.4 1084.01 1304.95 1090.3 1314.6 1090.3C1316.26 1090.3 1317.6 1091.64 1317.6 1093.3C1317.6 1094.96 1316.26 1096.3 1314.6 1096.3C1301.99 1096.3 1291.61 1087.77 1291.4 1076.83L1291.4 1076.5V893.6C1291.4 882.503 1301.86 873.8 1314.6 873.8Z" fill="#FFF0E0"/>
<path fill-rule="evenodd" clip-rule="evenodd" d="M1251.8 945.9V890.7C1251.8 881.3 1260.8 873.6 1272 873.6H1234.2C1223 873.6 1214 881.2 1214 890.7V945.9H1251.8Z" fill="#FFF0E0"/>
<path fill-rule="evenodd" clip-rule="evenodd" d="M1784.09 1089C1785.75 1088.99 1787.09 1090.33 1787.1 1091.99C1787.11 1093.59 1785.86 1094.9 1784.29 1094.99L1784.11 1095L3.1118 1102C1.45496 1102.01 0.106542 1100.67 0.10003 1099.01C0.0937503 1097.41 1.33753 1096.1 2.91196 1096.01L3.08822 1096L1784.09 1089Z" fill="#241C54"/>
</svg>
